<svg xmlns="http://www.w3.org/2000/svg" viewBox="0 0 283.47 168.16"><defs><style>.cls-1{fill:#278094;}.cls-2{fill:#818181;}.cls-3{fill:gray;}.cls-4{fill:#288095;}.cls-5{fill:#828282;}.cls-6{fill:#868686;}</style></defs><g id="Capa_2" data-name="Capa 2"><g id="Capa_1-2" data-name="Capa 1"><path class="cls-1" d="M125.82,9.21A26.8,26.8,0,0,0,112.66,1.7a66.89,66.89,0,0,0-27.61-.5c-19.41,3.49-37.41,10.44-53.45,22C23.17,29.27,15.7,36.39,11,45.89c-3.13,6.29-3.32,12.57.1,18.85,4.1,7.55,11,10.87,19,12.47,4.87,1,9.86.7,14.82.49,3.73-.15,3.76-.08,2,3.4C41.65,91.6,37.43,102.44,35.22,114c-.37,2-1.51,1.72-2.82,1.41a93.79,93.79,0,0,1-16.83-5.49,24.76,24.76,0,0,1-8-5.23,4.64,4.64,0,0,1-1.26-5.24c.34-.94,1.41-2-.1-2.92a3.57,3.57,0,0,0-4.06.06,5.53,5.53,0,0,0-1.48,7.1c1.89,3.49,5.12,5.45,8.45,7.21a88.86,88.86,0,0,0,22,8.13c2,.45,3.66,1.06,4,3.47a2.9,2.9,0,0,0,2,2.19,6.94,6.94,0,0,0,7.8-1.29,6.16,6.16,0,0,1,4.55-1.66,104.84,104.84,0,0,0,38.29-6.52c8.42-3.12,15.84-7.86,21.41-14.9,8.54-10.78,7.65-21.36-4.89-29-4.51-2.77-9.6-3.61-15.34-4.33,1.59-1.09,2.72-1.91,3.89-2.65a189.48,189.48,0,0,0,17.84-12.56C118,45.82,124.8,39.48,129,30.82,132.85,23.05,131.81,15.36,125.82,9.21ZM45,114.88a2.26,2.26,0,0,1-.54.45c-.58-.89.1-1.57.32-2.27,4-12.85,9.86-24.89,16.45-36.6A5,5,0,0,1,62,75.29c.45-.42,1-1,1.65-.7s.32,1.17.15,1.69A147.82,147.82,0,0,1,57.4,92.5,184.36,184.36,0,0,1,45,114.88Zm79.31-93.62a48.35,48.35,0,0,1-9.1,14.82c-7.73,9-17.41,15.78-26.39,23.35a53.75,53.75,0,0,0-6.6,5.92c-1.6,1.88-1.34,3.26.89,4.34a6.84,6.84,0,0,0,3.25.71c3.3-.13,6.48.64,9.7,1.2,8.07,1.4,10.69,7.52,9.45,14.75C103.72,96.7,97,103.4,88.36,108.24c-9.9,5.56-20.77,8.11-32.08,8.81-1.44.08-2.87.22-4.3.4-1.81.23-2-.52-1.17-1.87,1.16-2,2.35-4,3.5-6a140.09,140.09,0,0,0,14-34.79A4.6,4.6,0,0,1,71,71.37a29.23,29.23,0,0,0,8.69-5.45c1.11-1.1,3.44-1.88,1.87-4.18a4.92,4.92,0,0,0-6.75-1.56c-1.32.9-2.48,2-3.75,3a4.12,4.12,0,0,1-2.41,1.22c.25-1.55,1.24-2.64,2-3.8,7.73-12.07,15.7-24,26-34a36.55,36.55,0,0,1,2.93-2.48c1-.77,1.41-.48,1.35.75a29.48,29.48,0,0,0-.07,3.12c.11,2.18,1.41,3.27,3.48,3.58s2.46-1.19,2.93-2.72c1.06-3.51,1.66-6.91-1.61-9.68a10.82,10.82,0,0,0-11-2.1c-5.63,1.87-9.55,6.11-13.24,10.41A218,218,0,0,0,55.93,64.25c-3.09,5.61-6.46,9.07-13.15,9.33-5.66.23-11.2.75-16.84-.67C13,69.64,10.15,57.12,16,47.14c4.49-7.68,10.76-13.64,18-18.65C51.77,16.27,71.44,9.22,92.73,6.42A65.21,65.21,0,0,1,112.79,7a22.67,22.67,0,0,1,8,3.21C124.83,12.79,126,16.45,124.29,21.26Z"/><path class="cls-1" d="M271,77.42c-.82-.79-1.64-.23-2.34.33a8.19,8.19,0,0,0-1,1.06c-4.49,5-8.92,10.07-13.52,15-1.28,1.36-3,3.83-4.77,2.69-1.59-1-.29-3.69.28-5.59,1.92-6.35,5.47-11.89,8.8-17.54,1.63-2.75,1.19-3.88-1.69-5.16-1.73-.77-3.24-.7-4.5.85-.73.88-1.45,1.39-2.62.49-6.6-5.06-15.55-2.7-20.68,4.09-1.29,1.71-2.14,3.71-3.91,5.11a144.59,144.59,0,0,1-14.08,10,18.14,18.14,0,0,1-3,1.38c-1,.39-1.48,0-1.41-1.14a13.74,13.74,0,0,1,1.8-5.42c2.12-4,4.3-8,6.74-11.89.66-1,1.49-2.12.69-3.54a5,5,0,0,0-8.1-.72,56.28,56.28,0,0,0-6.29,10.46c-1.07,2.34-1.11,5.27-2.63,7.12a91.22,91.22,0,0,1-12,12.1c-.44.37-1,1-1.66.53s-.45-1.13-.36-1.79a24.34,24.34,0,0,1,3-8c2.28-4.3,4.84-8.49,6.5-13.08,1.29-3.57,0-5.85-3.53-7.14-.63-.23-1.41-.13-1.87-.8.35-.85,1.15-1.16,1.79-1.59a53.6,53.6,0,0,0,17.92-20c1.74-3.34,3.31-6.85,3.12-10.71-.4-7.93-9.43-12-16.65-7.56a39.14,39.14,0,0,0-10.62,10.3C174.32,50.57,167.76,65.79,161.17,81c-2.81,6.48-7.69,11.05-13,15.36-1.24,1-2,.71-2.11-1a12.29,12.29,0,0,1,.73-4.2c1.91-6.44,5.45-12.06,8.88-17.74.95-1.57,1.57-3-.28-4.37-2.08-1.58-4.14-1.86-5.56-.26s-2.34,1.21-3.82.26a13,13,0,0,0-14.29-.22c-5.45,3.15-8.49,8.17-10.1,14-.9,3.3-.9,6.79,2.2,9.19,3.35,2.59,7,2.35,10.57.38,1.25-.69,2.4-1.57,3.6-2.36.38-.25.71-.75,1.25-.47s.16.84.14,1.27c0,.8-.08,1.6-.08,2.4,0,5.69,4.56,8.43,9.69,5.88,3.09-1.54,5.24-4.15,7.61-6.52.85-.85,1.26-1.15,2.35,0,2.09,2.11,4.69,1.8,6.16-.43,5-7.6,11.83-13.38,19-18.77a1.3,1.3,0,0,1,1.73-.2c-2,3.77-4,7.53-6,11.34-1.75,3.44-3.09,7-3,11a5.25,5.25,0,0,0,4.17,5.44c2.92.9,5.37-.33,7.62-1.91,4-2.82,7-6.73,10.67-10.31,1.32,3.55,4,4.69,7.44,4.49a11.93,11.93,0,0,0,5.39-1.82,115.38,115.38,0,0,0,12.06-8.48c-.75,6.8,1.14,9.91,6.57,10.92,3,.56,5.56-.91,8.08-2.37,1-.58,1.85-2.23,2.93-1.61s.23,2.19.22,3.34c0,5.69,4.56,8.58,9.65,6a16.26,16.26,0,0,0,3.36-2.27c5.8-5.21,10.55-11.38,15.55-17.32C271.11,78.94,271.78,78.19,271,77.42Zm-126.85,0A40.38,40.38,0,0,1,131,89.66c-1.44.86-2.23.23-2-1.27a22.43,22.43,0,0,1,9.56-15.85,7.39,7.39,0,0,1,3.16-1.23c.64,0,1.13-.08,1.52.29S144.52,76.8,144.12,77.4Zm28.66.62-.3-.18q2.33-4.94,4.66-9.86c.25-.54.63-1.1,1.26-.63,1.38,1,3,1.14,5.13,1.35Zm10.29-14c-1.26.61-2.54,1.42-4.4.83,4.24-8.34,8.53-16.35,14-23.7a58.47,58.47,0,0,1,7.16-8.38c1.83-1.69,4.1-3.88,6.47-2.45,2.07,1.24,1.36,4.24.89,6.48-1.29,6.06-4.81,10.93-8.75,15.51A47.94,47.94,0,0,1,183.07,64.07ZM245,80a45.62,45.62,0,0,1-11,9.54c-1.17.7-2.35,1-2.34-1.37,1.18-6.63,4.21-12.44,10.47-16.06,2.88-1.67,3.36-1,4.53,2C247.69,76.84,246.49,78.29,245,80Z"/><path class="cls-2" d="M17.37,153.87c-.81-.8-.86-1.15-.11-2.05a7,7,0,0,0,1-8c-1.38-2.78-3.87-3.94-6.84-4.07-2.32-.1-4.64.05-7,0-1.39-.05-1.79.48-1.77,1.81.06,4.08,0,8.15,0,12.23s.08,8.16,0,12.23c0,1.73.56,2.21,2.2,2.11,2.15-.12,4.31-.05,6.47,0,3.48,0,6.29-1.19,7.84-4.45A8.68,8.68,0,0,0,17.37,153.87Zm-12-6.94c.31-1.28-.82-3.78.51-4.18a12.06,12.06,0,0,1,7.73.18,4.4,4.4,0,0,1,1.94,6.76,4.58,4.58,0,0,1-3.32,2.14c-1.89.18-3.81.1-5.72.11-1,0-1.16-.62-1.15-1.43C5.34,149.4,5.33,148.28,5.33,146.93Zm6.3,18.28h-1c-5.34,0-5.34,0-5.34-5.37s0-5.34,5.43-5.29c4.22,0,6.3,1.6,6.41,4.81C17.3,163.27,15.54,165.13,11.63,165.21Z"/><path class="cls-3" d="M168.53,153.91c0-8,5.78-14.4,13-14.2,4.3.11,7.55,2.29,10,5.72.46.63,1,1.31-.1,1.95-.9.5-1.5.54-2.17-.45a9.47,9.47,0,0,0-7.31-4.45c-3.92-.31-6.8,1.53-8.85,4.67a11.83,11.83,0,0,0-.82,12.1c3.56,7.6,13,8,17,1.46.62-1,1.24-1,2.15-.44,1.22.75.49,1.47,0,2.18a12.3,12.3,0,0,1-13.44,5.12c-5-1.32-9.26-6.62-9.55-12C168.5,155,168.53,154.47,168.53,153.91Z"/><path class="cls-2" d="M199.55,159.62c1.84.07,3.68,0,5.52,0a44.4,44.4,0,0,1,5,0c2.46.26,2.62-1,2.25-2.88-.75-3.83-4.26-7-7.92-7.23-4.29-.2-7.75,2.35-9.07,6.68a9.59,9.59,0,0,0,4.84,11.14,8.57,8.57,0,0,0,10.64-3c.35-.51,1-1.08.41-1.67a2.76,2.76,0,0,0-1.71-.73c-.72,0-.86.85-1.27,1.3-3.19,3.51-8.05,2.7-10-1.63C197.71,160.26,197.81,159.56,199.55,159.62Zm3.64-7.38c2.48-.32,4.27,1,5.63,2.92.7,1,.8,1.74-.85,1.72-3.18,0-6.36,0-9.86,0C199.06,154.06,200.69,152.57,203.19,152.24Z"/><path class="cls-2" d="M254.87,159.62c1.83.08,3.67,0,5.51,0s3.83,0,5.75,0c1.24,0,1.77-.42,1.64-1.68a9.07,9.07,0,0,0-5.09-7.62,7.69,7.69,0,0,0-8.38.71,9.2,9.2,0,0,0-3.83,9.46c.61,3.67,2.71,6.36,6.41,7.3a8,8,0,0,0,8.79-2.91c.54-.68,1.86-1.45.43-2.53-1.11-.84-1.69-.25-2.45.71a5.76,5.76,0,0,1-10.06-1.45C253,160.26,253.13,159.54,254.87,159.62Zm-.57-4.79a5.66,5.66,0,0,1,9.64.13,2.41,2.41,0,0,1,.55,1.51c-.15.7-.94.36-1.44.38-1.28.05-2.56,0-3.84,0s-2.56,0-3.83,0c-.59,0-1.45.3-1.65-.51A2.33,2.33,0,0,1,254.3,154.83Z"/><path class="cls-2" d="M97.08,159.62c2,.06,4,0,6,0s3.84-.08,5.76,0c1.44.07,1.8-.55,1.66-1.85-.41-4-3.86-7.83-7.55-8.23a8.63,8.63,0,0,0-9.41,6.13,9.62,9.62,0,0,0,4,11.31,8.44,8.44,0,0,0,10.8-2.06c.57-.67,2-1.4.62-2.5-1.11-.91-1.85-.33-2.66.75a5.3,5.3,0,0,1-5.72,2.11,5.83,5.83,0,0,1-4.45-4.25C95.75,160.07,95.89,159.59,97.08,159.62Zm-.37-4.47a5.76,5.76,0,0,1,10-.15c.68,1.15.78,1.94-1,1.87-1.35-.05-2.71,0-4.07,0s-2.56-.06-3.83,0C96.26,157,95.9,156.52,96.71,155.15Z"/><path class="cls-2" d="M217.08,158.65c0-2.4,0-4.8,0-7.21,0-.59-.21-1.39.71-1.54.6-.1,1.47-.34,1.74.35.59,1.5,1.27.59,2,.24a8.9,8.9,0,0,1,7.45-.18A6,6,0,0,1,233,156c.09,3.44,0,6.88.05,10.33,0,1-.14,1.65-1.41,1.65s-1.4-.69-1.39-1.68c0-3.2,0-6.41,0-9.61,0-2.87-1.62-4.28-4.81-4.43-3.44-.17-5.45,1.2-5.61,4.09-.17,3.2-.08,6.4-.12,9.61,0,.89.3,2-1.28,2s-1.36-1-1.37-1.91Z"/><path class="cls-2" d="M40.43,158.72c0,2.48,0,5,0,7.43,0,.53.19,1.23-.47,1.48s-1.63.38-2-.31c-.62-1.31-1.23-.48-1.86-.18a9.56,9.56,0,0,1-7,.42,6,6,0,0,1-4.61-5.77c-.12-3.51,0-7-.06-10.55,0-1.06.27-1.61,1.47-1.59s1.32.82,1.32,1.75c0,3.2,0,6.39,0,9.59,0,3,1.37,4.17,4.8,4.22,4,.07,5.62-1,5.72-4.11s0-6.39,0-9.58c0-.86-.19-1.8,1.2-1.86s1.43.88,1.42,1.88Z"/><path class="cls-3" d="M72.93,158.82v-7.67c0-.57,0-1.21.76-1.27.6,0,1.52-.34,1.68.43.33,1.58,1,.71,1.59.35a8.71,8.71,0,0,1,7.64-.39,5.92,5.92,0,0,1,4.19,5.6c.11,3.52,0,7,.07,10.55,0,1.08-.27,1.62-1.47,1.59s-1.27-.67-1.27-1.56c0-3.2,0-6.39,0-9.59-.06-3-1.81-4.52-5.2-4.59s-5.26,1.38-5.36,4.41c-.11,3.2,0,6.4,0,9.6,0,.92,0,1.74-1.31,1.73s-1.29-.85-1.29-1.75Q72.94,162.54,72.93,158.82Z"/><path class="cls-3" d="M120.77,168.09a7.26,7.26,0,0,1-6-2.37c-.46-.53-1.44-1.1-.34-1.92.71-.52,1.32-1,2.23,0,1.85,2,4.19,2.14,6.62,1.18a2.34,2.34,0,0,0-.26-4.59c-1.85-.52-3.76-.81-5.57-1.41s-3.07-1.64-3.22-3.74a4.66,4.66,0,0,1,2.71-4.9c3-1.46,6-1.48,8.8.68.54.42,1.8.76,1,1.72-.54.66-1.39,1.53-2.61.44-1.58-1.4-3.53-1.3-5.45-.68a2.4,2.4,0,0,0-1.9,2.21c0,1.16,1,1.58,1.89,1.88a23.79,23.79,0,0,0,3,.75c4.26.78,6.44,2.78,6.15,5.71C127.53,166.14,124.8,168.08,120.77,168.09Z"/><path class="cls-3" d="M138.24,168.1c-2.23,0-4.32-.43-5.85-2.21-.45-.52-1.77-1-.63-2a1.52,1.52,0,0,1,2.44.07,5.54,5.54,0,0,0,6,1.24c1.29-.41,2.44-1.08,2.35-2.62s-1.24-2-2.44-2.26c-1.7-.43-3.45-.71-5.11-1.26s-3.13-1.59-3.36-3.64a4.89,4.89,0,0,1,2.58-5,8.27,8.27,0,0,1,9.21.8c.43.4,1.56.81.69,1.62-.58.54-1.29,1.52-2.41.49-1.66-1.53-3.65-1.45-5.63-.77a2.45,2.45,0,0,0-1.9,2.23c0,1.08,1,1.55,2,1.83a28.2,28.2,0,0,0,3,.76c4,.71,6.37,2.79,6.24,5.47C145.26,165.86,142.24,168.08,138.24,168.1Z"/><path class="cls-3" d="M52,168.09a7.13,7.13,0,0,1-5.83-2.35c-.47-.51-1.47-1.1-.38-1.92.7-.52,1.38-1,2.26,0,1.7,1.86,3.88,2,6.18,1.35a2.65,2.65,0,0,0,2.26-2.47c0-1.41-1-2.06-2.3-2.38A51.42,51.42,0,0,1,49,159.07c-2-.7-3.58-1.83-3.56-4.28A5,5,0,0,1,49.11,150a7.75,7.75,0,0,1,8.31,1.29c.43.38,1.56.82.55,1.61-.58.46-1.22,1.4-2.25.48-1.83-1.64-3.93-1.53-6.06-.67a2.14,2.14,0,0,0-1.5,2c0,1.07.75,1.54,1.62,1.81a30,30,0,0,0,3.47.9c4.2.75,6.16,2.69,5.85,5.89C58.8,166.23,56.14,168.09,52,168.09Z"/><path class="cls-3" d="M239.7,158.82c0-1,0-2.08,0-3.12,0-1.66.61-3.75-2.41-3.37-.85.11-.82-.77-.84-1.42s.21-1.34,1.05-1.21c2.46.38,2.24-1.24,2.21-2.8,0-1.92,0-3.83,0-5.75,0-.93.18-1.51,1.31-1.49s1.25.69,1.24,1.57c0,2.07.12,4.16,0,6.22-.15,1.88.59,2.47,2.33,2.23.47-.07,1,0,1.43,0,1-.06,1.45.3,1.44,1.37s-.52,1.31-1.47,1.4c-3.7.36-3.69.39-3.69,4.17v5.75c0,2.09.94,3.23,3.12,2.76,1.24-.27,1.84.18,2.06,1.29s-.85,1.18-1.53,1.37c-3.37.92-6.06-1.11-6.17-4.64-.05-1.44,0-2.88,0-4.31Z"/><path class="cls-4" d="M226.87,47.48a4.57,4.57,0,0,1-2.18,4A39.3,39.3,0,0,1,214,56.79a2.45,2.45,0,0,1-3.34-1.46c-.61-1.46.6-1.92,1.64-2.41a30.25,30.25,0,0,0,7.18-4.26,9.27,9.27,0,0,0,2.68-3.91c.77-2.12,1.56-2.26,3.17-.66A4.87,4.87,0,0,1,226.87,47.48Z"/><path class="cls-3" d="M272.37,158.85c0-2.47,0-4.94,0-7.42,0-1.5,1.39-2.36,2.22-1.34s1.25.58,2,.18a8.16,8.16,0,0,1,5.38-.52c1.29.22,1.68,1,1.39,2.23-.33,1.44-1.12.85-2,.6-3.56-1.05-6.26.95-6.41,4.86-.11,2.86,0,5.74,0,8.61,0,.93.23,2-1.33,2s-1.26-1.08-1.27-2C272.35,163.64,272.37,161.25,272.37,158.85Z"/><path class="cls-5" d="M66.75,158.86c0,2.56,0,5.11,0,7.67,0,.95-.21,1.47-1.31,1.49s-1.53-.4-1.53-1.53c0-5.11,0-10.23,0-15.34,0-1,.22-1.47,1.32-1.5s1.54.43,1.52,1.55C66.72,153.75,66.75,156.31,66.75,158.86Z"/><path class="cls-6" d="M65.38,143.54a1.79,1.79,0,0,1-1.87-1.81,1.73,1.73,0,0,1,1.85-2,1.78,1.78,0,0,1,1.87,2A1.84,1.84,0,0,1,65.38,143.54Z"/></g></g></svg>